# xmcd CD database file
#
# Track frame offsets:
#	150
#	12855
#	23740
#	35405
#	44282
#	61055
#	70287
#	75120
#	86015
#	97337
#	112500
#	120790
#
# Disc length: 1750 seconds
#
# Revision: 0
# Processed by: cddbd v1.5.1PL0 Copyright (c) Steve Scherf et al.
# Submitted via: CDex 1.51
#
DISCID=7f06d40c
DTITLE=Pedro Infante - Colección de Oro Vol. 5
DYEAR=2001
DGENRE=Ranchero
TTITLE0=Cuando El Destino
TTITLE1=Arrejuntate Prietita
TTITLE2=Serenata Sin Luna
TTITLE3=Esta Noche
TTITLE4=Coplas
TTITLE5=El Papalote
TTITLE6=Ay Mis Cuates
TTITLE7=Adios Lucrecia
TTITLE8=Amor Escondido
TTITLE9=Serenata Huasteca
TTITLE10=Oh, Que Amor
TTITLE11=El Corrido de Monterrey
EXTD=YEAR: 2001
EXTT0=
EXTT1=
EXTT2=
EXTT3=
EXTT4=
EXTT5=
EXTT6=
EXTT7=
EXTT8=
EXTT9=
EXTT10=
EXTT11=
PLAYORDER=
